<svg width="13" height="19" viewBox="0 0 13 19" fill="none" xmlns="http://www.w3.org/2000/svg">
<path d="M0.767 4.824C0.863 3.336 1.431 2.176 2.471 1.344C3.527 0.511999 4.871 0.0959988 6.503 0.0959988C7.623 0.0959988 8.591 0.295999 9.407 0.696C10.223 1.096 10.839 1.64 11.255 2.328C11.671 3.016 11.879 3.792 11.879 4.656C11.879 5.648 11.615 6.496 11.087 7.2C10.559 7.904 9.927 8.376 9.191 8.616V8.712C10.135 9 10.871 9.528 11.399 10.296C11.927 11.048 12.191 12.016 12.191 13.2C12.191 14.144 11.975 14.984 11.543 15.72C11.111 16.456 10.471 17.04 9.623 17.472C8.775 17.888 7.759 18.096 6.575 18.096C4.847 18.096 3.423 17.656 2.303 16.776C1.199 15.88 0.607 14.6 0.527 12.936H3.167C3.231 13.784 3.559 14.48 4.151 15.024C4.743 15.552 5.543 15.816 6.551 15.816C7.527 15.816 8.279 15.552 8.807 15.024C9.335 14.48 9.599 13.784 9.599 12.936C9.599 11.816 9.239 11.024 8.519 10.56C7.815 10.08 6.727 9.84 5.255 9.84H4.631V7.584H5.279C6.575 7.568 7.559 7.352 8.231 6.936C8.919 6.52 9.263 5.864 9.263 4.968C9.263 4.2 9.015 3.592 8.519 3.144C8.023 2.68 7.319 2.448 6.407 2.448C5.511 2.448 4.815 2.68 4.319 3.144C3.823 3.592 3.527 4.152 3.431 4.824H0.767Z" fill="white"/>
</svg>
